<svg width="24" height="24" viewBox="0 0 24 24" fill="none" xmlns="http://www.w3.org/2000/svg">
<g id="accounts">
<g id="Chart">
<path id="Fill 1" fill-rule="evenodd" clip-rule="evenodd" d="M7.12109 17.5631C6.70709 17.5631 6.37109 17.2271 6.37109 16.8131V9.95312C6.37109 9.53912 6.70709 9.20312 7.12109 9.20312C7.53509 9.20312 7.87109 9.53912 7.87109 9.95312V16.8131C7.87109 17.2271 7.53509 17.5631 7.12109 17.5631Z" fill="#D0D0D0"/>
<path id="Fill 3" fill-rule="evenodd" clip-rule="evenodd" d="M11.7881 17.561C11.3741 17.561 11.0381 17.225 11.0381 16.811V6.66797C11.0381 6.25397 11.3741 5.91797 11.7881 5.91797C12.2021 5.91797 12.5381 6.25397 12.5381 6.66797V16.811C12.5381 17.225 12.2021 17.561 11.7881 17.561Z" fill="#D0D0D0"/>
<path id="Fill 5" fill-rule="evenodd" clip-rule="evenodd" d="M16.3779 17.5621C15.9639 17.5621 15.6279 17.2261 15.6279 16.8121V13.5781C15.6279 13.1641 15.9639 12.8281 16.3779 12.8281C16.7919 12.8281 17.1279 13.1641 17.1279 13.5781V16.8121C17.1279 17.2261 16.7919 17.5621 16.3779 17.5621Z" fill="#D0D0D0"/>
<path id="Fill 7" fill-rule="evenodd" clip-rule="evenodd" d="M7.064 2.5C4.292 2.5 2.5 4.397 2.5 7.335V16.165C2.5 19.103 4.292 21 7.064 21H16.436C19.209 21 21 19.103 21 16.165V7.335C21 4.397 19.209 2.5 16.436 2.5H7.064ZM16.436 22.5H7.064C3.437 22.5 1 19.954 1 16.165V7.335C1 3.546 3.437 1 7.064 1H16.436C20.063 1 22.5 3.546 22.5 7.335V16.165C22.5 19.954 20.063 22.5 16.436 22.5Z" fill="#D0D0D0"/>
</g>
</g>
</svg>
