<svg width="16" height="16" viewBox="0 0 16 16" fill="none" xmlns="http://www.w3.org/2000/svg">
<path d="M6.10514 13.8483V11.8038C6.10512 11.2837 6.52907 10.8612 7.05433 10.8577H8.97838C9.50615 10.8577 9.934 11.2813 9.934 11.8038V11.8038V13.8546C9.93387 14.2961 10.2898 14.657 10.7357 14.6673H12.0184C13.2971 14.6673 14.3337 13.6411 14.3337 12.3752V12.3752V6.55921C14.3268 6.0612 14.0906 5.59355 13.6923 5.28934L9.30547 1.79085C8.53695 1.1817 7.44446 1.1817 6.67594 1.79085L2.30834 5.29569C1.9085 5.59867 1.67192 6.0671 1.66699 6.56556V12.3752C1.66699 13.6411 2.70358 14.6673 3.98227 14.6673H5.26497C5.72189 14.6673 6.09231 14.3006 6.09231 13.8483V13.8483" stroke="#E7E7E7" stroke-width="1.5" stroke-linecap="round" stroke-linejoin="round"/>
</svg>
