<svg width="16" height="16" viewBox="0 0 16 16" fill="none" xmlns="http://www.w3.org/2000/svg">
<mask id="mask0_1957_421" style="mask-type:alpha" maskUnits="userSpaceOnUse" x="1" y="1" width="14" height="15">
<path fill-rule="evenodd" clip-rule="evenodd" d="M1.33301 1.33398H14.1896V15.148H1.33301V1.33398Z" fill="white"/>
</mask>
<g mask="url(#mask0_1957_421)">
<path fill-rule="evenodd" clip-rule="evenodd" d="M4.80122 11.6273C4.95389 11.6273 5.10655 11.6467 5.25589 11.6867C5.70655 11.808 6.09789 12.1093 6.32989 12.514C6.48055 12.768 6.56389 13.0646 6.56655 13.3673C6.56655 13.8006 6.91455 14.148 7.34255 14.148H8.17789C8.60389 14.148 8.95189 13.8026 8.95389 13.3766C8.95122 12.906 9.13522 12.4587 9.47189 12.122C9.80389 11.79 10.2679 11.5907 10.7319 11.604C11.0359 11.6113 11.3286 11.6933 11.5866 11.84C11.9579 12.0527 12.4319 11.926 12.6466 11.5593L13.0892 10.8213C13.1879 10.6513 13.2166 10.438 13.1639 10.2413C13.1119 10.0447 12.9812 9.87398 12.8052 9.77332C12.3932 9.53598 12.0992 9.15332 11.9772 8.69465C11.8566 8.24465 11.9226 7.75332 12.1579 7.34865C12.3112 7.08198 12.5359 6.85732 12.8052 6.70265C13.1666 6.49132 13.2932 6.01865 13.0832 5.65065C13.0746 5.63598 13.0666 5.62065 13.0599 5.60465L12.6692 4.92732C12.4566 4.55732 11.9832 4.42998 11.6119 4.64132C11.2106 4.87865 10.7332 4.94665 10.2746 4.82598C9.81655 4.70732 9.43255 4.41732 9.19322 4.00798C9.03989 3.75198 8.95655 3.45398 8.95389 3.15065C8.95989 2.92265 8.87989 2.71798 8.73455 2.56798C8.58989 2.41865 8.38655 2.33398 8.17789 2.33398H7.34255C7.13589 2.33398 6.94255 2.41465 6.79655 2.55998C6.65122 2.70598 6.57189 2.89998 6.57322 3.10665C6.55922 4.08132 5.76255 4.86598 4.79789 4.86598C4.48855 4.86265 4.19055 4.77932 3.93189 4.62465C3.56855 4.41798 3.09389 4.54532 2.88122 4.91532L2.42989 5.65732C2.22322 6.01598 2.34989 6.48998 2.71789 6.70398C3.26389 7.01998 3.60455 7.60932 3.60455 8.24132C3.60455 8.87332 3.26389 9.46198 2.71655 9.77865C2.35055 9.99065 2.22389 10.462 2.43589 10.8287L2.85655 11.554C2.96055 11.7413 3.13055 11.8767 3.32722 11.932C3.52322 11.9867 3.73922 11.9633 3.91922 11.8633C4.18389 11.708 4.49189 11.6273 4.80122 11.6273ZM8.17789 15.148H7.34255C6.36322 15.148 5.56655 14.352 5.56655 13.3727C5.56522 13.252 5.53055 13.1266 5.46589 13.018C5.36122 12.8353 5.19189 12.7047 4.99655 12.6527C4.80255 12.6007 4.58989 12.6293 4.41522 12.7306C3.99655 12.964 3.50389 13.0207 3.05322 12.894C2.60322 12.7667 2.21455 12.4573 1.98655 12.0473L1.56989 11.3293C1.08255 10.484 1.37255 9.40065 2.21655 8.91265C2.45589 8.77465 2.60455 8.51732 2.60455 8.24132C2.60455 7.96532 2.45589 7.70732 2.21655 7.56932C1.37189 7.07865 1.08255 5.99265 1.56922 5.14732L2.02122 4.40532C2.50189 3.56932 3.58855 3.27465 4.43589 3.76132C4.55122 3.82998 4.67655 3.86465 4.80389 3.86598C5.21922 3.86598 5.56655 3.52332 5.57322 3.10198C5.57055 2.63732 5.75389 2.19132 6.08789 1.85465C6.42322 1.51865 6.86855 1.33398 7.34255 1.33398H8.17789C8.65522 1.33398 9.11922 1.52998 9.45189 1.87065C9.78389 2.21332 9.96722 2.68332 9.95322 3.15998C9.95455 3.26732 9.98989 3.39132 10.0539 3.49998C10.1599 3.67998 10.3272 3.80665 10.5259 3.85865C10.7246 3.90798 10.9326 3.88132 11.1092 3.77665C11.9626 3.28932 13.0486 3.58132 13.5359 4.42798L13.9512 5.14732C13.9619 5.16665 13.9712 5.18532 13.9792 5.20465C14.4206 6.03865 14.1259 7.08865 13.3059 7.56798C13.1866 7.63665 13.0899 7.73265 13.0232 7.84865C12.9199 8.02798 12.8912 8.24132 12.9432 8.43732C12.9966 8.63732 13.1239 8.80332 13.3032 8.90598C13.7079 9.13865 14.0099 9.53065 14.1306 9.98332C14.2512 10.4353 14.1852 10.926 13.9499 11.3307L13.5072 12.068C13.0199 12.9053 11.9339 13.1953 11.0892 12.7073C10.9766 12.6426 10.8466 12.6073 10.7172 12.604H10.7132C10.5206 12.604 10.3226 12.686 10.1786 12.8293C10.0326 12.9753 9.95255 13.17 9.95389 13.3766C9.94922 14.356 9.15255 15.148 8.17789 15.148Z" fill="#C1BEFF"/>
</g>
<path fill-rule="evenodd" clip-rule="evenodd" d="M7.76319 6.98242C7.06986 6.98242 6.50586 7.54709 6.50586 8.24042C6.50586 8.93376 7.06986 9.49709 7.76319 9.49709C8.45653 9.49709 9.02053 8.93376 9.02053 8.24042C9.02053 7.54709 8.45653 6.98242 7.76319 6.98242ZM7.76319 10.4971C6.51853 10.4971 5.50586 9.48509 5.50586 8.24042C5.50586 6.99576 6.51853 5.98242 7.76319 5.98242C9.00786 5.98242 10.0205 6.99576 10.0205 8.24042C10.0205 9.48509 9.00786 10.4971 7.76319 10.4971Z" fill="#C1BEFF"/>
</svg>
