<svg width="24" height="24" viewBox="0 0 24 24" fill="none" xmlns="http://www.w3.org/2000/svg">
<g id="tutors">
<g id="3 User">
<path id="Fill 1" fill-rule="evenodd" clip-rule="evenodd" d="M17.887 12.1472C17.519 12.1472 17.198 11.8762 17.145 11.5012C17.088 11.0902 17.373 10.7112 17.784 10.6542C18.824 10.5082 19.609 9.60624 19.611 8.55424C19.611 7.51124 18.863 6.62924 17.832 6.46024C17.424 6.39324 17.147 6.00724 17.214 5.59824C17.282 5.18924 17.665 4.91524 18.076 4.98024C19.834 5.26924 21.111 6.77324 21.111 8.55624C21.107 10.3512 19.766 11.8912 17.991 12.1402C17.956 12.1452 17.921 12.1472 17.887 12.1472Z" fill="#D0D0D0"/>
<g id="Group 5">
<mask id="mask0_1957_393" style="mask-type:alpha" maskUnits="userSpaceOnUse" x="18" y="14" width="5" height="5">
<path id="Clip 4" fill-rule="evenodd" clip-rule="evenodd" d="M18.9785 14.002H22.7725V18.5315H18.9785V14.002Z" fill="white"/>
</mask>
<g mask="url(#mask0_1957_393)">
<path id="Fill 3" fill-rule="evenodd" clip-rule="evenodd" d="M20.8618 18.5315C20.5598 18.5315 20.2748 18.3475 20.1608 18.0485C20.0128 17.6615 20.2078 17.2275 20.5948 17.0805C21.2728 16.8225 21.2728 16.5375 21.2728 16.4005C21.2728 15.9625 20.7158 15.6565 19.6178 15.4925C19.2088 15.4305 18.9258 15.0495 18.9868 14.6385C19.0478 14.2285 19.4278 13.9555 19.8408 14.0085C22.2638 14.3715 22.7728 15.5095 22.7728 16.4005C22.7728 16.9445 22.5588 17.9375 21.1288 18.4825C21.0408 18.5155 20.9508 18.5315 20.8618 18.5315Z" fill="#D0D0D0"/>
</g>
</g>
<path id="Fill 6" fill-rule="evenodd" clip-rule="evenodd" d="M11.8867 15.9141C9.51073 15.9141 6.67773 16.2061 6.67773 17.5961C6.67773 18.9971 9.51073 19.2911 11.8867 19.2911C14.2627 19.2911 17.0947 19.0001 17.0947 17.6131C17.0947 16.2091 14.2627 15.9141 11.8867 15.9141ZM11.8867 20.7911C10.2277 20.7911 5.17773 20.7911 5.17773 17.5961C5.17773 14.4141 10.2277 14.4141 11.8867 14.4141C13.5457 14.4141 18.5947 14.4141 18.5947 17.6131C18.5947 20.7911 13.7217 20.7911 11.8867 20.7911Z" fill="#D0D0D0"/>
<path id="Fill 8" fill-rule="evenodd" clip-rule="evenodd" d="M11.8864 5.5C10.1944 5.5 8.8184 6.877 8.8184 8.569C8.8154 9.389 9.1294 10.156 9.7044 10.735C10.2794 11.314 11.0454 11.635 11.8614 11.638L11.8864 12.388V11.638C13.5784 11.638 14.9554 10.262 14.9554 8.569C14.9554 6.877 13.5784 5.5 11.8864 5.5ZM11.8864 13.138H11.8594C10.6394 13.134 9.4964 12.656 8.6404 11.792C7.7824 10.929 7.3134 9.783 7.3184 8.566C7.3184 6.05 9.3674 4 11.8864 4C14.4064 4 16.4554 6.05 16.4554 8.569C16.4554 11.088 14.4064 13.138 11.8864 13.138Z" fill="#D0D0D0"/>
<path id="Fill 10" fill-rule="evenodd" clip-rule="evenodd" d="M5.88609 12.1474C5.85209 12.1474 5.81709 12.1454 5.78209 12.1404C4.00709 11.8914 2.66709 10.3514 2.66309 8.55843C2.66309 6.77343 3.94009 5.26943 5.69809 4.98043C6.11909 4.91443 6.49209 5.19143 6.56009 5.59843C6.62709 6.00743 6.35009 6.39343 5.94209 6.46043C4.91109 6.62943 4.16309 7.51143 4.16309 8.55643C4.16509 9.60643 4.95009 10.5094 5.98909 10.6544C6.40009 10.7114 6.68509 11.0904 6.62809 11.5014C6.57509 11.8764 6.25409 12.1474 5.88609 12.1474Z" fill="#D0D0D0"/>
<path id="Fill 12" fill-rule="evenodd" clip-rule="evenodd" d="M2.912 18.5313C2.823 18.5313 2.733 18.5153 2.645 18.4823C1.214 17.9363 1 16.9433 1 16.4003C1 15.5103 1.509 14.3713 3.933 14.0083C4.346 13.9563 4.724 14.2283 4.786 14.6383C4.847 15.0493 4.564 15.4303 4.155 15.4923C3.057 15.6563 2.5 15.9623 2.5 16.4003C2.5 16.5373 2.5 16.8213 3.179 17.0803C3.566 17.2273 3.761 17.6613 3.613 18.0483C3.499 18.3473 3.214 18.5313 2.912 18.5313Z" fill="#D0D0D0"/>
</g>
</g>
</svg>
